# xmcd
#
# Track frame offsets: 
#        150
#        12251
#        26458
#        37294
#        53443
#        70795
#        86428
#        103318
#        119816
#        132661
#        148277
#        166352
#
# Disc length: 2451 seconds
#
# Revision: 0
# Processed by: cddbd v1.5.2PL0 Copyright (c) Steve Scherf et al.
# Submitted via: ExactAudioCopy v0.99pb4
#
DISCID=b009910c
DTITLE=D. Johnson - Doney Blues
DYEAR=2008
DGENRE=Blues
TTITLE0=My Black Mama
TTITLE1=Terraplane Blues
TTITLE2=They're Red Hot
TTITLE3=32-20 Blues
TTITLE4=Levee Camp Moan
TTITLE5=Needed Time
TTITLE6=Doney Blues
TTITLE7=Pony Blues
TTITLE8=That's Not Right
TTITLE9=Crossroads
TTITLE10=Death Letter
TTITLE11=Kindhearted Woman Blues
EXTD=
EXTT0=
EXTT1=
EXTT2=
EXTT3=
EXTT4=
EXTT5=
EXTT6=
EXTT7=
EXTT8=
EXTT9=
EXTT10=
EXTT11=
PLAYORDER=
